<svg xmlns="http://www.w3.org/2000/svg" xmlns:xlink="http://www.w3.org/1999/xlink" width="500" zoomAndPan="magnify" viewBox="0 0 375 374.999991" height="500" preserveAspectRatio="xMidYMid meet" version="1.0"><defs><g/><clipPath id="244c03dcda"><path d="M 73 162.675781 L 133.574219 162.675781 L 133.574219 210 L 73 210 Z M 73 162.675781 " clip-rule="nonzero"/></clipPath><clipPath id="be875580d1"><path d="M 89.519531 179.042969 L 97.757812 179.042969 L 97.757812 187.28125 L 89.519531 187.28125 Z M 89.519531 179.042969 " clip-rule="nonzero"/></clipPath><clipPath id="10e912e203"><path d="M 93.640625 179.042969 C 91.363281 179.042969 89.519531 180.886719 89.519531 183.164062 C 89.519531 185.4375 91.363281 187.28125 93.640625 187.28125 C 95.914062 187.28125 97.757812 185.4375 97.757812 183.164062 C 97.757812 180.886719 95.914062 179.042969 93.640625 179.042969 Z M 93.640625 179.042969 " clip-rule="nonzero"/></clipPath><clipPath id="c1126660ce"><path d="M 109.425781 179.042969 L 117.664062 179.042969 L 117.664062 187.28125 L 109.425781 187.28125 Z M 109.425781 179.042969 " clip-rule="nonzero"/></clipPath><clipPath id="92cda19cb4"><path d="M 113.546875 179.042969 C 111.269531 179.042969 109.425781 180.886719 109.425781 183.164062 C 109.425781 185.4375 111.269531 187.28125 113.546875 187.28125 C 115.820312 187.28125 117.664062 185.4375 117.664062 183.164062 C 117.664062 180.886719 115.820312 179.042969 113.546875 179.042969 Z M 113.546875 179.042969 " clip-rule="nonzero"/></clipPath><clipPath id="12cafafa74"><path d="M 90.367188 192.648438 L 116.3125 192.648438 L 116.3125 204.246094 L 90.367188 204.246094 Z M 90.367188 192.648438 " clip-rule="nonzero"/></clipPath><clipPath id="d2bf63dc06"><path d="M 99.019531 203.605469 C 100.351562 203.992188 101.863281 204.246094 103.347656 204.246094 C 104.832031 204.246094 106.257812 204.027344 107.574219 203.640625 C 107.601562 203.628906 107.628906 203.628906 107.660156 203.617188 C 112.601562 202.074219 116.242188 197.996094 116.3125 193.578125 L 116.3125 192.648438 L 90.367188 192.648438 L 90.367188 193.578125 C 90.4375 198.019531 94.023438 202.097656 99.019531 203.605469 Z M 99.019531 203.605469 " clip-rule="nonzero"/></clipPath></defs><rect x="-37.5" width="450" fill="#ffffff" y="-37.499999" height="449.999989" fill-opacity="1"/><rect x="-37.5" width="450" fill="#fafafa" y="-37.499999" height="449.999989" fill-opacity="1"/><g clip-path="url(#244c03dcda)"><path fill="#1358b4" d="M 92.648438 162.679688 L 92.214844 163.367188 C 90.671875 165.910156 89.128906 167.773438 87.585938 168.953125 C 86.847656 169.644531 84.664062 170.761719 81.035156 172.308594 C 79.554688 173.164062 78.6875 173.742188 78.429688 174.042969 C 76.5625 175.890625 75.414062 177.605469 74.980469 179.1875 C 73.542969 183.105469 73.066406 187.382812 73.550781 192.023438 C 74.109375 196.445312 75.765625 199.996094 78.515625 202.671875 C 83.902344 208.03125 93.457031 210.335938 107.175781 209.589844 C 113.957031 209.285156 118.84375 208.53125 121.84375 207.328125 C 125.671875 206.082031 128.636719 203.804688 130.726562 200.496094 C 131.210938 200.039062 131.941406 198.152344 132.925781 194.84375 C 133.546875 192.0625 133.703125 189.246094 133.394531 186.394531 C 132.917969 182.03125 131.453125 178.488281 128.992188 175.769531 C 127.027344 173.339844 123.503906 171.394531 118.421875 169.941406 C 116.09375 169.398438 114.011719 169.089844 112.175781 169.011719 C 111.453125 168.851562 107.785156 168.921875 101.171875 169.21875 C 99.964844 169.203125 98.925781 169.042969 98.058594 168.730469 C 95.878906 167.859375 94.074219 165.84375 92.648438 162.679688 " fill-opacity="1" fill-rule="nonzero"/></g><g clip-path="url(#be875580d1)"><g clip-path="url(#10e912e203)"><path fill="#ffffff" d="M 89.519531 179.042969 L 97.757812 179.042969 L 97.757812 187.28125 L 89.519531 187.28125 Z M 89.519531 179.042969 " fill-opacity="1" fill-rule="nonzero"/></g></g><g clip-path="url(#c1126660ce)"><g clip-path="url(#92cda19cb4)"><path fill="#ffffff" d="M 109.425781 179.042969 L 117.664062 179.042969 L 117.664062 187.28125 L 109.425781 187.28125 Z M 109.425781 179.042969 " fill-opacity="1" fill-rule="nonzero"/></g></g><g clip-path="url(#12cafafa74)"><g clip-path="url(#d2bf63dc06)"><path fill="#ffffff" d="M 90.367188 192.648438 L 116.3125 192.648438 L 116.3125 204.246094 L 90.367188 204.246094 Z M 90.367188 192.648438 " fill-opacity="1" fill-rule="nonzero"/></g></g><g fill="#104489" fill-opacity="1"><g transform="translate(145.856421, 202.520377)"><g><path d="M 26.171875 -21.4375 L 26.171875 0 L 20.953125 0 L 20.953125 -12.859375 L 16.15625 0 L 11.9375 0 L 7.125 -12.890625 L 7.125 0 L 1.890625 0 L 1.890625 -21.4375 L 8.0625 -21.4375 L 14.078125 -6.59375 L 20.03125 -21.4375 Z M 26.171875 -21.4375 "/></g></g></g><g fill="#104489" fill-opacity="1"><g transform="translate(173.891308, 202.520377)"><g><path d="M 12.03125 0.21875 C 10.019531 0.21875 8.171875 -0.25 6.484375 -1.1875 C 4.804688 -2.125 3.472656 -3.429688 2.484375 -5.109375 C 1.503906 -6.796875 1.015625 -8.6875 1.015625 -10.78125 C 1.015625 -12.875 1.503906 -14.753906 2.484375 -16.421875 C 3.472656 -18.097656 4.804688 -19.40625 6.484375 -20.34375 C 8.171875 -21.28125 10.019531 -21.75 12.03125 -21.75 C 14.050781 -21.75 15.898438 -21.28125 17.578125 -20.34375 C 19.253906 -19.40625 20.578125 -18.097656 21.546875 -16.421875 C 22.515625 -14.753906 23 -12.875 23 -10.78125 C 23 -8.6875 22.507812 -6.796875 21.53125 -5.109375 C 20.550781 -3.429688 19.226562 -2.125 17.5625 -1.1875 C 15.894531 -0.25 14.050781 0.21875 12.03125 0.21875 Z M 12.03125 -4.546875 C 13.738281 -4.546875 15.109375 -5.113281 16.140625 -6.25 C 17.171875 -7.394531 17.6875 -8.90625 17.6875 -10.78125 C 17.6875 -12.675781 17.171875 -14.1875 16.140625 -15.3125 C 15.109375 -16.445312 13.738281 -17.015625 12.03125 -17.015625 C 10.300781 -17.015625 8.921875 -16.453125 7.890625 -15.328125 C 6.867188 -14.210938 6.359375 -12.695312 6.359375 -10.78125 C 6.359375 -8.882812 6.867188 -7.367188 7.890625 -6.234375 C 8.921875 -5.109375 10.300781 -4.546875 12.03125 -4.546875 Z M 12.03125 -4.546875 "/></g></g></g><g fill="#104489" fill-opacity="1"><g transform="translate(197.895037, 202.520377)"><g><path d="M 26.171875 -21.4375 L 26.171875 0 L 20.953125 0 L 20.953125 -12.859375 L 16.15625 0 L 11.9375 0 L 7.125 -12.890625 L 7.125 0 L 1.890625 0 L 1.890625 -21.4375 L 8.0625 -21.4375 L 14.078125 -6.59375 L 20.03125 -21.4375 Z M 26.171875 -21.4375 "/></g></g></g><g fill="#104489" fill-opacity="1"><g transform="translate(225.929925, 202.520377)"><g><path d="M 7.125 -17.265625 L 7.125 -12.921875 L 14.109375 -12.921875 L 14.109375 -8.890625 L 7.125 -8.890625 L 7.125 -4.1875 L 15.03125 -4.1875 L 15.03125 0 L 1.890625 0 L 1.890625 -21.4375 L 15.03125 -21.4375 L 15.03125 -17.265625 Z M 7.125 -17.265625 "/></g></g></g><g fill="#104489" fill-opacity="1"><g transform="translate(242.451576, 202.520377)"><g><path d="M 21.078125 0 L 15.859375 0 L 7.125 -13.234375 L 7.125 0 L 1.890625 0 L 1.890625 -21.4375 L 7.125 -21.4375 L 15.859375 -8.15625 L 15.859375 -21.4375 L 21.078125 -21.4375 Z M 21.078125 0 "/></g></g></g><g fill="#104489" fill-opacity="1"><g transform="translate(265.416971, 202.520377)"><g><path d="M 17.3125 -21.4375 L 17.3125 -17.265625 L 11.640625 -17.265625 L 11.640625 0 L 6.421875 0 L 6.421875 -17.265625 L 0.734375 -17.265625 L 0.734375 -21.4375 Z M 17.3125 -21.4375 "/></g></g></g><g fill="#104489" fill-opacity="1"><g transform="translate(283.465573, 202.520377)"><g><path d="M 9.65625 0.21875 C 8.082031 0.21875 6.675781 -0.0351562 5.4375 -0.546875 C 4.195312 -1.054688 3.203125 -1.8125 2.453125 -2.8125 C 1.710938 -3.8125 1.320312 -5.015625 1.28125 -6.421875 L 6.84375 -6.421875 C 6.925781 -5.617188 7.203125 -5.007812 7.671875 -4.59375 C 8.140625 -4.175781 8.75 -3.96875 9.5 -3.96875 C 10.269531 -3.96875 10.878906 -4.144531 11.328125 -4.5 C 11.773438 -4.863281 12 -5.359375 12 -5.984375 C 12 -6.515625 11.820312 -6.953125 11.46875 -7.296875 C 11.113281 -7.640625 10.675781 -7.921875 10.15625 -8.140625 C 9.632812 -8.367188 8.894531 -8.628906 7.9375 -8.921875 C 6.550781 -9.347656 5.421875 -9.773438 4.546875 -10.203125 C 3.671875 -10.628906 2.914062 -11.257812 2.28125 -12.09375 C 1.65625 -12.925781 1.34375 -14.015625 1.34375 -15.359375 C 1.34375 -17.359375 2.066406 -18.921875 3.515625 -20.046875 C 4.960938 -21.179688 6.847656 -21.75 9.171875 -21.75 C 11.523438 -21.75 13.425781 -21.179688 14.875 -20.046875 C 16.320312 -18.921875 17.097656 -17.347656 17.203125 -15.328125 L 11.546875 -15.328125 C 11.503906 -16.023438 11.25 -16.570312 10.78125 -16.96875 C 10.3125 -17.363281 9.710938 -17.5625 8.984375 -17.5625 C 8.347656 -17.5625 7.835938 -17.394531 7.453125 -17.0625 C 7.066406 -16.726562 6.875 -16.242188 6.875 -15.609375 C 6.875 -14.921875 7.195312 -14.378906 7.84375 -13.984375 C 8.5 -13.597656 9.519531 -13.179688 10.90625 -12.734375 C 12.289062 -12.265625 13.414062 -11.816406 14.28125 -11.390625 C 15.144531 -10.960938 15.890625 -10.34375 16.515625 -9.53125 C 17.148438 -8.71875 17.46875 -7.671875 17.46875 -6.390625 C 17.46875 -5.160156 17.15625 -4.046875 16.53125 -3.046875 C 15.914062 -2.054688 15.015625 -1.265625 13.828125 -0.671875 C 12.648438 -0.078125 11.257812 0.21875 9.65625 0.21875 Z M 9.65625 0.21875 "/></g></g></g></svg>