<svg xmlns="http://www.w3.org/2000/svg" xmlns:xlink="http://www.w3.org/1999/xlink" width="500" zoomAndPan="magnify" viewBox="0 0 375 374.999991" height="500" preserveAspectRatio="xMidYMid meet" version="1.0"><defs><clipPath id="0d3b6cbf18"><path d="M 96 114.972656 L 279 114.972656 L 279 258 L 96 258 Z M 96 114.972656 " clip-rule="nonzero"/></clipPath><clipPath id="f5d3675faf"><path d="M 145.769531 164.390625 L 170.648438 164.390625 L 170.648438 189.269531 L 145.769531 189.269531 Z M 145.769531 164.390625 " clip-rule="nonzero"/></clipPath><clipPath id="4597449a3d"><path d="M 158.207031 164.390625 C 151.339844 164.390625 145.769531 169.960938 145.769531 176.832031 C 145.769531 183.703125 151.339844 189.269531 158.207031 189.269531 C 165.078125 189.269531 170.648438 183.703125 170.648438 176.832031 C 170.648438 169.960938 165.078125 164.390625 158.207031 164.390625 Z M 158.207031 164.390625 " clip-rule="nonzero"/></clipPath><clipPath id="f57c780308"><path d="M 205.878906 164.390625 L 230.757812 164.390625 L 230.757812 189.269531 L 205.878906 189.269531 Z M 205.878906 164.390625 " clip-rule="nonzero"/></clipPath><clipPath id="2c4673cfc8"><path d="M 218.316406 164.390625 C 211.445312 164.390625 205.878906 169.960938 205.878906 176.832031 C 205.878906 183.703125 211.445312 189.269531 218.316406 189.269531 C 225.1875 189.269531 230.757812 183.703125 230.757812 176.832031 C 230.757812 169.960938 225.1875 164.390625 218.316406 164.390625 Z M 218.316406 164.390625 " clip-rule="nonzero"/></clipPath><clipPath id="3e9d4ece2e"><path d="M 148.332031 205.472656 L 226.667969 205.472656 L 226.667969 240.488281 L 148.332031 240.488281 Z M 148.332031 205.472656 " clip-rule="nonzero"/></clipPath><clipPath id="2a56be6f10"><path d="M 174.457031 238.558594 C 178.472656 239.722656 183.039062 240.488281 187.519531 240.488281 C 192.003906 240.488281 196.316406 239.832031 200.289062 238.667969 C 200.375 238.628906 200.457031 238.628906 200.542969 238.59375 C 215.464844 233.933594 226.457031 221.621094 226.667969 208.285156 L 226.667969 205.472656 L 148.332031 205.472656 L 148.332031 208.285156 C 148.542969 221.695312 159.363281 234.003906 174.457031 238.558594 Z M 174.457031 238.558594 " clip-rule="nonzero"/></clipPath></defs><rect x="-37.5" width="450" fill="#ffffff" y="-37.499999" height="449.999989" fill-opacity="1"/><rect x="-37.5" width="450" fill="#ffffff" y="-37.499999" height="449.999989" fill-opacity="1"/><g clip-path="url(#0d3b6cbf18)"><path fill="#1358b4" d="M 155.21875 114.976562 L 153.914062 117.046875 C 149.246094 124.730469 144.585938 130.355469 139.929688 133.925781 C 137.703125 136.007812 131.109375 139.386719 120.152344 144.058594 C 115.679688 146.632812 113.054688 148.378906 112.28125 149.292969 C 106.648438 154.875 103.175781 160.050781 101.863281 164.828125 C 97.523438 176.660156 96.085938 189.578125 97.550781 203.582031 C 99.238281 216.941406 104.234375 227.660156 112.535156 235.742188 C 128.804688 251.921875 157.65625 258.882812 199.085938 256.628906 C 219.558594 255.707031 234.320312 253.429688 243.375 249.800781 C 254.9375 246.035156 263.882812 239.15625 270.199219 229.167969 C 271.65625 227.785156 273.867188 222.09375 276.835938 212.097656 C 278.707031 203.699219 279.179688 195.195312 278.25 186.585938 C 276.820312 173.410156 272.386719 162.714844 264.957031 154.507812 C 259.023438 147.164062 248.386719 141.296875 233.042969 136.902344 C 226.011719 135.265625 219.722656 134.332031 214.183594 134.09375 C 212.003906 133.621094 200.925781 133.828125 180.949219 134.722656 C 177.304688 134.679688 174.175781 134.1875 171.558594 133.242188 C 164.96875 130.625 159.519531 124.535156 155.21875 114.976562 " fill-opacity="1" fill-rule="nonzero"/></g><g clip-path="url(#f5d3675faf)"><g clip-path="url(#4597449a3d)"><path fill="#ffffff" d="M 145.769531 164.390625 L 170.648438 164.390625 L 170.648438 189.269531 L 145.769531 189.269531 Z M 145.769531 164.390625 " fill-opacity="1" fill-rule="nonzero"/></g></g><g clip-path="url(#f57c780308)"><g clip-path="url(#2c4673cfc8)"><path fill="#ffffff" d="M 205.878906 164.390625 L 230.757812 164.390625 L 230.757812 189.269531 L 205.878906 189.269531 Z M 205.878906 164.390625 " fill-opacity="1" fill-rule="nonzero"/></g></g><g clip-path="url(#3e9d4ece2e)"><g clip-path="url(#2a56be6f10)"><path fill="#ffffff" d="M 148.332031 205.472656 L 226.667969 205.472656 L 226.667969 240.488281 L 148.332031 240.488281 Z M 148.332031 205.472656 " fill-opacity="1" fill-rule="nonzero"/></g></g></svg>